# xmcd CD database file
#
# Track frame offsets:
#	150
#	11509
#	21104
#	32354
#	48857
#	63360
#	73637
#	88315
#	98784
#	106684
#	121095
#	131240
#
# Disc length: 1895 seconds
#
# Revision: 0
# Processed by: cddbd v1.5.1PL0 Copyright (c) Steve Scherf et al.
# Submitted via: CDex 1.40Release
#
DISCID=9207650c
DTITLE=Gerriany and Dario - os Brothers do forro
DYEAR=2003
DGENRE=Country
TTITLE0=Tô machucado
TTITLE1=Você Brincou
TTITLE2=Porque sofrer
TTITLE3=Assaltante Mulher
TTITLE4=Correndo Perigo
TTITLE5=Os Brothers do Forró
TTITLE6=Volta
TTITLE7=Bate coxa
TTITLE8=Alô
TTITLE9=Dependo desse Amor
TTITLE10=Teu Chamego
TTITLE11=Bumbum Bom
EXTD=YEAR: 2003 ID3G: 2
EXTT0=
EXTT1=
EXTT2=
EXTT3=
EXTT4=
EXTT5=
EXTT6=
EXTT7=
EXTT8=
EXTT9=
EXTT10=
EXTT11=
PLAYORDER=
